<svg width="139" height="43" viewBox="0 0 139 43" fill="none" xmlns="http://www.w3.org/2000/svg">
<path d="M122.906 1.35937C123.906 0.546866 124.781 1.06249 125.531 2.90624C125.844 3.93749 125.797 4.78124 125.391 5.43749C124.797 6.28124 124.891 6.74999 125.672 6.84374L127.594 6.04687C128.781 5.26562 129.781 5.29687 130.594 6.14062C131.625 8.07812 130.594 10.0312 127.5 12C125.5 13.4062 123.625 13.2031 121.875 11.3906C121.406 11.1406 120.953 11.1562 120.516 11.4375C119.047 13.0937 117.719 14.4375 116.531 15.4687C115.312 16.1875 114.781 16.0312 114.938 15C115.375 12.5937 116.25 10.1875 117.562 7.78124C118.844 5.49999 120.625 3.35937 122.906 1.35937ZM97.9688 11.6719C98.8438 8.20312 100.156 7.81249 101.906 10.5C102.438 11.3125 103.031 11.5781 103.688 11.2969L107.438 10.1719C108.938 9.60937 110.141 9.68749 111.047 10.4062C112.766 11.7187 113.047 13.2812 111.891 15.0937C110.828 16.9062 110.516 18.7812 110.953 20.7187C111.078 21.75 110.469 22.5312 109.125 23.0625C107.375 24 105.812 24.7031 104.438 25.1719C103.812 25.4844 103.359 25.7969 103.078 26.1094C102.359 26.8281 101.578 26.8594 100.734 26.2031C100.328 25.8281 99.875 24.9062 99.375 23.4375C97.9062 19.125 97.4375 15.2031 97.9688 11.6719ZM105.984 14.0625C103.297 14.625 102.062 15.9375 102.281 18L102.469 19.875C102.875 21.875 104.031 22.1406 105.938 20.6719C106.781 19.9844 107.25 19.2344 107.344 18.4219C107.406 17.4844 107.547 16.375 107.766 15.0937C107.609 14.0625 107.016 13.7187 105.984 14.0625ZM123 17.0625C124.531 16.1875 126.188 16.2656 127.969 17.2969C128.969 17.9219 129.031 18.8594 128.156 20.1094C124.156 23.2969 121.234 26.9219 119.391 30.9844C118.422 33.0156 118.828 34.4844 120.609 35.3906C124.891 36.2969 128.609 36.2656 131.766 35.2969C133.203 34.9219 134.078 33.9219 134.391 32.2969C134.453 31.1094 134.656 29.6719 135 27.9844C135.25 27.1094 135.438 27.0156 135.562 27.7031C135.562 29.4219 136.141 30.7812 137.297 31.7812C137.922 32.25 138.297 32.5625 138.422 32.7187C138.484 32.875 138.422 33.4219 138.234 34.3594C138.484 35.9531 137.547 37.3594 135.422 38.5781C131.234 40.7656 126.688 41.3906 121.781 40.4531C116.375 39.5156 114.297 36.7187 115.547 32.0625C116.203 29.5625 117.859 26.6875 120.516 23.4375C120.578 22.9687 120.078 22.875 119.016 23.1562L117.469 24.0937C116.281 24.9062 115.219 25.0937 114.281 24.6562C113.969 24.5937 113.672 24.1562 113.391 23.3437C113.453 21.5937 114.469 20.2187 116.438 19.2187C118.562 18.375 120.75 17.6562 123 17.0625Z" fill="#65a30d"/>
<path d="M58.2656 3.46875C59.0156 2.25 59.5156 1.64062 59.7656 1.64062C60.3594 1.67188 61.0156 2.26562 61.7344 3.42188C63.0469 5.92188 62.8594 8.42188 61.1719 10.9219C59.9531 13.0156 59.2344 14.6094 59.0156 15.7031C59.4844 16.2344 60.5313 16.0938 62.1563 15.2812C62.7188 14.9062 62.9688 14.4688 62.9063 13.9688C63.0313 12.4688 63.3594 11.2188 63.8906 10.2188C64.6719 9.09375 65.4844 8.89062 66.3281 9.60938C67.1094 10.6406 67.4063 11.6875 67.2188 12.75C66.2813 18.625 65.0938 23.3125 63.6563 26.8125C62.8438 27.9375 63.0469 28.8281 64.2656 29.4844C65.6094 30.5156 66.5156 31.6094 66.9844 32.7656C67.7031 34.6406 67.6875 36.0156 66.9375 36.8906C66.0625 37.8594 65.3125 37.7656 64.6875 36.6094C63.9063 35.1719 62.9531 33.9219 61.8281 32.8594C61.0469 31.6094 60.1406 31.4844 59.1094 32.4844C57.8281 33.6719 56.6094 34.5625 55.4531 35.1562C54.3594 35.6875 54 35.4062 54.375 34.3125C54.8438 33.3438 55.3906 32.5 56.0156 31.7812C57.0156 30.625 56.7813 29.9219 55.3125 29.6719C54.8438 29.6094 54.4375 29.25 54.0938 28.5938C53.8438 27.9375 53.7813 26.5938 53.9063 24.5625C54.125 22.9062 53.5313 22.5781 52.125 23.5781C51.0313 24.5781 50.125 24.5938 49.4063 23.625C48.375 22.125 48.1719 20.875 48.7969 19.875C49.1094 19.2812 49.6875 18.875 50.5313 18.6562C51.1563 18.4375 51.7813 18.2812 52.4063 18.1875C53.9063 18.2812 54.7813 17.4375 55.0313 15.6562C55.7188 11.3438 56.7969 7.28125 58.2656 3.46875ZM81.5156 3.32812C83.6406 2.85938 85.2031 3.82812 86.2031 6.23438C86.0781 7.29688 85.4531 7.875 84.3281 7.96875C82.9531 8.6875 81.7031 9.79688 80.5781 11.2969C79.1094 12.0469 78.6563 12.875 79.2188 13.7812C79.875 15.7188 80.8594 16.4688 82.1719 16.0312C83.7344 15.8125 84.7969 15.5312 85.3594 15.1875C86.3594 14.9375 87.4844 15.1875 88.7344 15.9375C90.6719 16.7812 91.0469 17.875 89.8594 19.2188C87.9219 20.375 85.7344 20.9219 83.2969 20.8594C81.6719 20.6094 81.0469 21.3594 81.4219 23.1094C81.6094 26.8906 81.2969 30.5 80.4844 33.9375C80.2344 36.3125 79.0625 37.9531 76.9688 38.8594C75.625 39.9531 74.2813 40.4375 72.9375 40.3125C72.4375 40.1562 72.0781 39.7031 71.8594 38.9531C71.7031 38.3281 71.4063 37.7031 70.9688 37.0781C70.1563 36.2344 70.3281 36 71.4844 36.375C73.6094 36.5938 75.1875 35.3906 76.2188 32.7656C77.0938 29.7656 77.4688 26.7188 77.3438 23.625C77.625 22 77.0313 21.3125 75.5625 21.5625L72.1406 22.2656C70.3281 22.7031 69.0781 22.7656 68.3906 22.4531C67.7344 22.0469 67.3906 21.4531 67.3594 20.6719C67.2031 18.8906 68.25 17.7344 70.5 17.2031C71.4375 17.0156 72.5781 16.9062 73.9219 16.875C75.0469 17.125 75.75 16.8125 76.0313 15.9375C75.9688 15.4375 75.5938 14.625 74.9063 13.5C74.25 12.5 73.9688 11.8906 74.0625 11.6719C74.625 10.8594 75.7031 10.8594 77.2969 11.6719C77.7344 11.7344 78.125 11.4219 78.4688 10.7344C79.0313 9.48438 79.7188 8.23438 80.5313 6.98438C81.2188 5.67188 81.0469 4.9375 80.0156 4.78125C78.2969 5.1875 76.4063 6.21875 74.3438 7.875C73.1563 8.71875 71.9219 8.51562 70.6406 7.26562C69.6719 6.01562 70.1406 4.96875 72.0469 4.125C74.3906 3.65625 76.9219 3.45312 79.6406 3.51562L81.5156 3.32812ZM61.9688 19.4531C61.4375 18.9844 60.4844 19.2812 59.1094 20.3438C58.2031 20.6562 57.5469 21.2188 57.1406 22.0312L56.8594 24.4688C56.6719 25.125 56.9375 25.7344 57.6563 26.2969C58.75 27.1406 59.5938 26.9375 60.1875 25.6875C61.2188 23.5938 61.8125 21.5156 61.9688 19.4531Z" fill="#65a30d"/>
<path d="M26.1563 1.64062C26.75 0.578125 27.6563 0.515625 28.875 1.45312C29.4688 2.01562 29.9219 2.57812 30.2344 3.14062C30.2656 3.89062 30.625 4.28125 31.3125 4.3125C31.875 4.0625 32.4375 3.85938 33 3.70312C34.5625 3.79688 35.3906 4.46875 35.4844 5.71875C35.6094 6.75 35.0625 7.59375 33.8438 8.25L30.0938 9.60938C29.5 10.0156 29.2188 10.6094 29.25 11.3906C29.0313 12.1406 29.2031 12.6406 29.7656 12.8906C30.3281 12.9219 31.0313 12.8281 31.875 12.6094C33.75 12.2031 35.625 11.8594 37.5 11.5781C39.3125 11.4531 40.5781 12.5781 41.2969 14.9531C41.1406 15.5781 40.6875 15.8438 39.9375 15.75L32.4375 16.125C28.625 16.5938 24.875 17.6406 21.1875 19.2656C20.5625 19.4844 19.9375 19.6406 19.3125 19.7344C18.125 19.9531 17.1875 19.7969 16.5 19.2656C14.875 17.7969 14.9531 16.7031 16.7344 15.9844C19.1719 15.2656 21.6719 14.6719 24.2344 14.2031C25.0781 14.0781 25.4375 13.5938 25.3125 12.75C25.3438 11.3125 24.75 10.8125 23.5313 11.25C22.4688 11.5938 21.5469 11.25 20.7656 10.2188C19.5781 8.75 19.8906 7.71875 21.7031 7.125C22.3281 6.9375 22.9531 6.8125 23.5781 6.75C24.2656 6.65625 24.7656 6.3125 25.0781 5.71875C25.1094 4.21875 25.4688 2.85938 26.1563 1.64062ZM10.6406 1.35938C11.7031 0.984375 12.5781 1.48438 13.2656 2.85938C13.5469 4.10938 13.4531 6.3125 12.9844 9.46875C12.8594 10.2812 13.1875 10.7969 13.9688 11.0156C15.5938 11.2031 16.3438 12.0156 16.2188 13.4531C16.0313 14.6406 15.2969 15.5156 14.0156 16.0781C13.1406 16.5469 12.7031 17.0938 12.7031 17.7188L12.6094 19.4062C12.5781 20.8125 13.1094 21.2344 14.2031 20.6719C14.6719 20.5156 14.7969 20.9062 14.5781 21.8438C14.3906 22.5312 14.0313 23.2812 13.5 24.0938C13.0313 24.7188 12.7031 25.3438 12.5156 25.9688C12.4844 29.3438 12.5 32.7188 12.5625 36.0938C12.7813 37.1562 12.3906 38.4062 11.3906 39.8438C10.9844 40.5938 10.5156 40.9844 9.9844 41.0156C9.6719 40.8906 9.43752 40.5156 9.28127 39.8906C8.87502 37.2969 8.71877 34.2656 8.81252 30.7969C8.96877 29.8906 8.81252 29.3594 8.34377 29.2031C7.71877 29.4219 7.03127 29.9688 6.28127 30.8438C4.37502 32.6875 2.78127 32.6719 1.50002 30.7969C0.875022 29.8281 1.25002 29 2.62502 28.3125C4.34377 27 6.1094 25.75 7.9219 24.5625C8.45315 24.2812 8.75002 23.75 8.81252 22.9688V19.6406C8.71877 18.7031 8.59377 18.1719 8.43752 18.0469C7.84377 18.2031 7.14065 17.9375 6.32815 17.25C5.6719 16.8125 5.07815 17.0156 4.5469 17.8594C3.8594 19.9219 2.75002 21.1719 1.21877 21.6094C0.968772 21.5781 0.890647 21.0781 0.984397 20.1094C1.4844 16.5781 2.31252 13.4844 3.46877 10.8281C3.90627 9.92188 4.20315 9.4375 4.3594 9.375C5.51565 10.2812 6.3594 11.625 6.89065 13.4062C7.14065 13.7812 7.53127 13.7969 8.06252 13.4531C8.78127 12.9531 9.06252 12.1406 8.90627 11.0156C8.81252 7.45312 8.90627 4.71875 9.18752 2.8125C9.28127 2.1875 9.76565 1.70312 10.6406 1.35938ZM29.1563 18.0938C30.2188 17.7188 31.2969 17.9688 32.3906 18.8438C33.0156 19.25 33.6406 19.4844 34.2656 19.5469C35.6719 19.2031 37.0156 19.3125 38.2969 19.875C39.2969 20.4688 39.6094 21.2031 39.2344 22.0781C38.8281 23.0781 38.1875 23.6562 37.3125 23.8125C36.6875 23.875 36.0625 23.9844 35.4375 24.1406C34.1875 24.2344 33.7031 24.9062 33.9844 26.1562L34.2656 29.9062C34.5781 32.6875 34.2813 35.4688 33.375 38.25L32.625 39.1875C30.9375 40.125 29.2344 41.1719 27.5156 42.3281C26.8594 42.7031 26.3438 42.4062 25.9688 41.4375C26.1563 40.5938 25.6094 39.6875 24.3281 38.7188C23.2031 37.7812 23.2031 37.4375 24.3281 37.6875C26.1406 38.1562 27.4531 37.8906 28.2656 36.8906C28.5469 36.5469 28.7031 36.0938 28.7344 35.5312C29.0781 32.75 29.25 29.9219 29.25 27.0469C29.5 25.2031 28.6406 24.6719 26.6719 25.4531C24.8594 25.8281 22.9844 26.3281 21.0469 26.9531C19.7344 27.5781 18.6719 26.9688 17.8594 25.125C17.2031 24.0938 17.5625 23.3281 18.9375 22.8281C21.0625 22.5156 23.5625 22.0312 26.4375 21.375C27.3125 21.1875 27.9375 20.9375 28.3125 20.625C28.5313 20.3438 28.6563 20.0312 28.6875 19.6875C28.3438 18.8438 28.5 18.3125 29.1563 18.0938ZM18.2813 29.4375C19.5 28.9062 20.7344 28.9531 21.9844 29.5781C23.7031 30.4219 24.4219 31.5156 24.1406 32.8594C24.0781 33.6094 23.7188 34.1719 23.0625 34.5469C22.3438 34.9219 21.3906 34.4844 20.2031 33.2344C19.5781 32.6094 19.2031 32.2656 19.0781 32.2031C17.4844 31.3281 17.2188 30.4062 18.2813 29.4375Z" fill="#65a30d"/>
</svg>
